<?xml version="1.0" encoding="utf-8"?>
<svg version="1.1" id="layer" xmlns="http://www.w3.org/2000/svg" xmlns:xlink="http://www.w3.org/1999/xlink" x="0px" y="0px"
	 viewBox="-153 -46 652 652" style="enable-background:new -153 -46 652 652;" xml:space="preserve">
<path d="M-52.6,319.5h-28.7v-44.7c0-4.7-3.4-7.7-7.5-7.7c-3.9,0-8.6,3.1-8.6,7.7v44.7h-25.8v-71.2l-8.3-5.8
	c9.5-3.1,25.4-9.9,34.1-14.6v37.4c3.4-4.2,11.9-9.6,22.5-9.6c13.5,0,19.4,8.8,19.4,19.3v37.8C-55.5,313.8-54.6,316.1-52.6,319.5z
	 M243.4,319.5h-28.7v-44.7c0-4.7-3.4-7.7-7.5-7.7c-3.9,0-8.7,3.1-8.7,7.7v44.7h-25.8v-71.2l-8.3-5.8c9.5-3.1,25.4-9.9,34.1-14.6
	v37.4c3.4-4.2,11.9-9.6,22.5-9.6c13.5,0,19.3,8.8,19.3,19.3v37.8C240.4,313.8,241.4,316.1,243.4,319.5z M10.2,308.9v4.5
	c-5.7,4.8-12,8.8-25.6,8.8c-21.4,0-34.5-14.1-34.5-31.5c0-20.7,13.5-34.9,33.2-34.9c19.5,0,26.9,13.1,26.9,29.7h-35.7
	c1.5,19.1,12.4,27.7,22.2,27.7C1.5,313.2,6.8,311.6,10.2,308.9z M-18,281.7c5.7,0,6.4-1.6,6.4-6.3c0-3.6-0.7-12.5-6.4-12.5
	c-5.7,0-6.4,8.9-6.4,12.5C-24.4,280.1-23.7,281.7-18,281.7z M468.5,308.8v4.5c-5.7,4.8-12,8.8-25.6,8.8c-21.4,0-34.5-14.1-34.5-31.5
	c0-20.7,13.5-34.9,33.2-34.9c19.5,0,26.9,13.1,26.9,29.7h-35.7c1.5,19.1,12.4,27.7,22.2,27.7C459.8,313.2,465.2,311.6,468.5,308.8
	L468.5,308.8z M440.4,281.7c5.7,0,6.4-1.6,6.4-6.3c0-3.6-0.7-12.5-6.4-12.5c-5.7,0-6.4,8.9-6.4,12.5
	C434,280.1,434.6,281.7,440.4,281.7z M83,308.3l2.8,0.6c-1.3,5.2-5.1,13.2-17.3,13.2c-10.2,0-13.1-6.2-15.2-12.7
	c-1.8,6-8.8,12.7-22.1,12.7c-11.9,0-18.4-5.2-18.4-15c0-10.9,10.8-18.8,37.7-26.7v-11.5c0-5.9-3.2-8-6.8-8c-3.2,0-8.3,3.4-8.3,8.7
	c0,2.5,0.5,4.5,0.8,7c0,3.3-3.8,8.2-9.6,8.2c-6.4,0-9.5-4.6-9.5-9.9c0-8.7,8.2-19.3,29.7-19.3c22.3,0,29.4,11.6,29.4,22.7v29.4
	c0,1.8,0.7,3.6,2.7,3.6C80.9,311.5,82.1,310.5,83,308.3L83,308.3z M50.7,306.1v-21.9c-9,3.6-12.2,12.5-12.2,19.3c0,5.5,1.7,8,5.9,8
	C48.1,311.6,50.7,309.3,50.7,306.1z M119.9,319.5H90.3v-71.2l-7.9-5.8c9-3.1,25.6-9.9,33.9-14.6v84.8
	C116.2,313.7,117.4,316,119.9,319.5z M282.3,319.5h-29.6v-71.2l-7.9-5.8c9-3.1,25.6-9.9,33.9-14.6v84.8
	C278.6,313.7,279.9,316,282.3,319.5z M164.4,312.1v4.5c-4.3,3.6-11.5,5.6-19.2,5.6c-12.7,0-17.2-9.3-17.2-17.1v-41.9h-6.1l32.3-27.8
	v22.9h10.2v4.9h-10.2v45.4c0,3.6,2.2,5.3,4.8,5.3C160.5,313.8,163.3,313.1,164.4,312.1z M307,254.8c-7.3,0-13.2-6-13.2-13.5
	c0-7.5,5.8-13.5,13.2-13.5c7.3,0,13.2,6,13.2,13.5C320.2,248.8,314.3,254.8,307,254.8z M324.3,319.5h-30.3v-44.9l-8.3-5.8
	c9.5-3.1,25.5-9.9,34.2-14.6v58.4C319.9,313.8,321.4,316.1,324.3,319.5L324.3,319.5z M406.4,319.5h-29.6v-44.9
	c0-4.7-3.4-7.7-7.5-7.7c-3.9,0-8.6,3.1-8.6,7.7v44.9h-25.8v-44.9l-8.3-5.8c9.5-3.1,24.7-9.9,33.4-14.6v12.3
	c4.3-5.6,12.5-11.1,23.2-11.1c13.5,0,19.3,8.8,19.3,19.3v37.9C402.6,313.7,403.9,316,406.4,319.5L406.4,319.5z"/>
</svg>
